HIERARCHY
ROOT Hips
{
    OFFSET 0.000 0 0.000
    CHANNELS 6 Xposition Yposition Zposition Zrotation Xrotation Yrotation
    JOINT RightUpLeg
    {
        OFFSET -10.500 -1.535 0.000
        CHANNELS 3 Zrotation Xrotation Yrotation
        JOINT RightLeg
        {
            OFFSET 0.000 -39.400 0.000
            CHANNELS 3 Zrotation Xrotation Yrotation
            JOINT RightFoot
            {
                OFFSET 0.000 -37.320 0.000
                CHANNELS 3 Zrotation Xrotation Yrotation
                End Site
                {
                    OFFSET 0.000 -6.920 15.750
                }
            }
        }
    }
    JOINT LeftUpLeg
    {
        OFFSET 10.500 -1.535 0.000
        CHANNELS 3 Zrotation Xrotation Yrotation
        JOINT LeftLeg
        {
            OFFSET 0.000 -39.400 0.000
            CHANNELS 3 Zrotation Xrotation Yrotation
            JOINT LeftFoot
            {
                OFFSET 0.000 -37.320 0.000
                CHANNELS 3 Zrotation Xrotation Yrotation
                End Site
                {
                    OFFSET 0.000 -6.920 15.750
                }
            }
        }
    }
    JOINT Spine
    {
        OFFSET 0.000 13.815 0.000
        CHANNELS 3 Zrotation Xrotation Yrotation
        JOINT Spine1
        {
            OFFSET 0.000 9.384 0.000
            CHANNELS 3 Zrotation Xrotation Yrotation
            JOINT Spine2
            {
                OFFSET 0.000 9.772 0.000
                CHANNELS 3 Zrotation Xrotation Yrotation
                JOINT Spine3
                {
                    OFFSET 0.000 9.384 0.000
                    CHANNELS 3 Zrotation Xrotation Yrotation
                    JOINT Neck
                    {
                        OFFSET 0.000 10.030 0.000
                        CHANNELS 3 Zrotation Xrotation Yrotation
                        JOINT Head
                        {
                            OFFSET 0.000 8.290 0.000
                            CHANNELS 3 Zrotation Xrotation Yrotation
                            End Site
                            {
                                OFFSET 0.000 16.070 0.000
                            }
                        }
                    }
                    JOINT RightShoulder
                    {
                        OFFSET -3.100 6.687 0.000
                        CHANNELS 3 Zrotation Xrotation Yrotation
                        JOINT RightArm
                        {
                            OFFSET -12.400 0.000 0.000
                            CHANNELS 3 Zrotation Xrotation Yrotation
                            JOINT RightForeArm
                            {
                                OFFSET -21.000 0.000 0.000
                                CHANNELS 3 Zrotation Xrotation Yrotation
                                JOINT RightHand
                                {
                                    OFFSET -23.000 0.000 0.000
                                    CHANNELS 3 Zrotation Xrotation Yrotation
                                    JOINT RightHandThumb1
                                    {
                                        OFFSET -2.347 0.179 2.942
                                        CHANNELS 3 Zrotation Xrotation Yrotation
                                        JOINT RightHandThumb2
                                        {
                                            OFFSET -3.472 0.000 0.000
                                            CHANNELS 3 Zrotation Xrotation Yrotation
                                            JOINT RightHandThumb3
                                            {
                                                OFFSET -2.412 0.000 0.000
                                                CHANNELS 3 Zrotation Xrotation Yrotation
                                                End Site
                                                {
                                                    OFFSET -2.068 0.000 0.000
                                                }
                                            }
                                        }
                                    }
                                    JOINT RightInHandIndex
                                    {
                                        OFFSET -3.039 0.479 1.865
                                        CHANNELS 3 Zrotation Xrotation Yrotation
                                        JOINT RightHandIndex1
                                        {
                                            OFFSET -4.919 -0.086 0.942
                                            CHANNELS 3 Zrotation Xrotation Yrotation
                                            JOINT RightHandIndex2
                                            {
                                                OFFSET -3.413 0.000 0.000
                                                CHANNELS 3 Zrotation Xrotation Yrotation
                                                JOINT RightHandIndex3
                                                {
                                                    OFFSET -1.935 0.000 0.000
                                                    CHANNELS 3 Zrotation Xrotation Yrotation
                                                    End Site
                                                    {
                                                        OFFSET -1.702 0.000 0.000
                                                    }
                                                }
                                            }
                                        }
                                    }
                                    JOINT RightInHandMiddle
                                    {
                                        OFFSET -3.189 0.488 0.713
                                        CHANNELS 3 Zrotation Xrotation Yrotation
                                        JOINT RightHandMiddle1
                                        {
                                            OFFSET -4.878 -0.079 0.296
                                            CHANNELS 3 Zrotation Xrotation Yrotation
                                            JOINT RightHandMiddle2
                                            {
                                                OFFSET -3.724 0.000 0.000
                                                CHANNELS 3 Zrotation Xrotation Yrotation
                                                JOINT RightHandMiddle3
                                                {
                                                    OFFSET -2.334 0.000 0.000
                                                    CHANNELS 3 Zrotation Xrotation Yrotation
                                                    End Site
                                                    {
                                                        OFFSET -1.862 0.000 0.000
                                                    }
                                                }
                                            }
                                        }
                                    }
                                    JOINT RightInHandRing
                                    {
                                        OFFSET -3.173 0.507 -0.122
                                        CHANNELS 3 Zrotation Xrotation Yrotation
                                        JOINT RightHandRing1
                                        {
                                            OFFSET -4.370 -0.021 -0.452
                                            CHANNELS 3 Zrotation Xrotation Yrotation
                                            JOINT RightHandRing2
                                            {
                                                OFFSET -3.246 0.000 0.000
                                                CHANNELS 3 Zrotation Xrotation Yrotation
                                                JOINT RightHandRing3
                                                {
                                                    OFFSET -2.252 0.000 0.000
                                                    CHANNELS 3 Zrotation Xrotation Yrotation
                                                    End Site
                                                    {
                                                        OFFSET -1.751 0.000 0.000
                                                    }
                                                }
                                            }
                                        }
                                    }
                                    JOINT RightInHandPinky
                                    {
                                        OFFSET -2.980 0.443 -1.133
                                        CHANNELS 3 Zrotation Xrotation Yrotation
                                        JOINT RightHandPinky1
                                        {
                                            OFFSET -3.904 -0.021 -1.028
                                            CHANNELS 3 Zrotation Xrotation Yrotation
                                            JOINT RightHandPinky2
                                            {
                                                OFFSET -2.599 0.000 0.000
                                                CHANNELS 3 Zrotation Xrotation Yrotation
                                                JOINT RightHandPinky3
                                                {
                                                    OFFSET -1.642 0.000 0.000
                                                    CHANNELS 3 Zrotation Xrotation Yrotation
                                                    End Site
                                                    {
                                                        OFFSET -1.551 0.000 0.000
                                                    }
                                                }
                                            }
                                        }
                                    }
                                }
                            }
                        }
                    }
                    JOINT LeftShoulder
                    {
                        OFFSET 3.100 6.687 0.000
                        CHANNELS 3 Zrotation Xrotation Yrotation
                        JOINT LeftArm
                        {
                            OFFSET 12.400 0.000 0.000
                            CHANNELS 3 Zrotation Xrotation Yrotation
                            JOINT LeftForeArm
                            {
                                OFFSET 21.000 0.000 0.000
                                CHANNELS 3 Zrotation Xrotation Yrotation
                                JOINT LeftHand
                                {
                                    OFFSET 23.000 0.000 0.000
                                    CHANNELS 3 Zrotation Xrotation Yrotation
                                    JOINT LeftHandThumb1
                                    {
                                        OFFSET 2.347 0.179 2.942
                                        CHANNELS 3 Zrotation Xrotation Yrotation
                                        JOINT LeftHandThumb2
                                        {
                                            OFFSET 3.472 0.000 0.000
                                            CHANNELS 3 Zrotation Xrotation Yrotation
                                            JOINT LeftHandThumb3
                                            {
                                                OFFSET 2.412 0.000 0.000
                                                CHANNELS 3 Zrotation Xrotation Yrotation
                                                End Site
                                                {
                                                    OFFSET 2.068 0.000 0.000
                                                }
                                            }
                                        }
                                    }
                                    JOINT LeftInHandIndex
                                    {
                                        OFFSET 3.039 0.479 1.865
                                        CHANNELS 3 Zrotation Xrotation Yrotation
                                        JOINT LeftHandIndex1
                                        {
                                            OFFSET 4.919 -0.086 0.942
                                            CHANNELS 3 Zrotation Xrotation Yrotation
                                            JOINT LeftHandIndex2
                                            {
                                                OFFSET 3.413 0.000 0.000
                                                CHANNELS 3 Zrotation Xrotation Yrotation
                                                JOINT LeftHandIndex3
                                                {
                                                    OFFSET 1.935 0.000 0.000
                                                    CHANNELS 3 Zrotation Xrotation Yrotation
                                                    End Site
                                                    {
                                                        OFFSET 1.702 0.000 0.000
                                                    }
                                                }
                                            }
                                        }
                                    }
                                    JOINT LeftInHandMiddle
                                    {
                                        OFFSET 3.189 0.488 0.713
                                        CHANNELS 3 Zrotation Xrotation Yrotation
                                        JOINT LeftHandMiddle1
                                        {
                                            OFFSET 4.878 -0.079 0.296
                                            CHANNELS 3 Zrotation Xrotation Yrotation
                                            JOINT LeftHandMiddle2
                                            {
                                                OFFSET 3.724 0.000 0.000
                                                CHANNELS 3 Zrotation Xrotation Yrotation
                                                JOINT LeftHandMiddle3
                                                {
                                                    OFFSET 2.334 0.000 0.000
                                                    CHANNELS 3 Zrotation Xrotation Yrotation
                                                    End Site
                                                    {
                                                        OFFSET 1.862 0.000 0.000
                                                    }
                                                }
                                            }
                                        }
                                    }
                                    JOINT LeftInHandRing
                                    {
                                        OFFSET 3.173 0.507 -0.122
                                        CHANNELS 3 Zrotation Xrotation Yrotation
                                        JOINT LeftHandRing1
                                        {
                                            OFFSET 4.370 -0.021 -0.452
                                            CHANNELS 3 Zrotation Xrotation Yrotation
                                            JOINT LeftHandRing2
                                            {
                                                OFFSET 3.246 0.000 0.000
                                                CHANNELS 3 Zrotation Xrotation Yrotation
                                                JOINT LeftHandRing3
                                                {
                                                    OFFSET 2.252 0.000 0.000
                                                    CHANNELS 3 Zrotation Xrotation Yrotation
                                                    End Site
                                                    {
                                                        OFFSET 1.751 0.000 0.000
                                                    }
                                                }
                                            }
                                        }
                                    }
                                    JOINT LeftInHandPinky
                                    {
                                        OFFSET 2.980 0.443 -1.133
                                        CHANNELS 3 Zrotation Xrotation Yrotation
                                        JOINT LeftHandPinky1
                                        {
                                            OFFSET 3.904 -0.021 -1.028
                                            CHANNELS 3 Zrotation Xrotation Yrotation
                                            JOINT LeftHandPinky2
                                            {
                                                OFFSET 2.599 0.000 0.000
                                                CHANNELS 3 Zrotation Xrotation Yrotation
                                                JOINT LeftHandPinky3
                                                {
                                                    OFFSET 1.642 0.000 0.000
                                                    CHANNELS 3 Zrotation Xrotation Yrotation
                                                    End Site
                                                    {
                                                        OFFSET 1.551 0.000 0.000
                                                    }
                                                }
                                            }
                                        }
                                    }
                                }
                            }
                        }
                    }
                }
            }
        }
    }
}
MOTION
Frames: 4
Frame Time: 0.0333
-217.425354 84.610451 -250.475021 -1.490811 -3.310842 -51.025280 3.118403 -11.447750 16.673611 -0.000001 28.631563 0.000001 -1.339908 -13.475753 -0.537288 -3.838225 -7.506068 -0.769992 0.000001 24.513449 -0.000004 2.655649 -13.618309 15.180671 -2.037477 5.307397 4.802745 -0.466950 1.337468 1.156460 -0.789562 2.210380 1.904858 -0.374900 0.278413 -0.175067 -0.375306 0.278060 -0.177768 -6.650191 5.050072 -3.255490 2.365196 -2.566049 -0.044124 50.858475 -40.241940 -20.858452 -0.777565 -3.045327 76.439377 47.200287 -34.930386 53.809338 28.184042 10.729352 19.159164 -0.000000 0.000000 -10.000000 -0.000000 0.000000 -10.000000 -0.000000 0.000000 -0.000000 19.981762 0.871897 2.396401 24.000000 0.000000 -0.000000 20.000000 0.000000 -0.000000 -0.000000 0.000000 -0.000000 20.000000 0.000000 -0.000000 24.000000 0.000000 -0.000000 20.000000 0.000000 -0.000000 -0.000000 0.000000 -0.000000 19.974758 -1.025646 -2.819379 24.000000 0.000000 -0.000000 20.000000 0.000000 -0.000000 -0.000000 0.000000 -0.000000 19.781452 -3.009481 -8.305146 24.000000 0.000000 -0.000000 20.000000 0.000000 -0.000000 -1.873857 0.551187 -12.623374 -81.087738 -0.568017 -5.221066 -2.783492 12.002220 -6.793248 -0.647913 3.434320 -1.058084 -28.184042 10.729352 -19.159164 -0.000000 0.000000 10.000000 -0.000000 0.000000 10.000000 -0.000000 0.000000 -0.000000 -19.981762 0.871897 -2.396401 -24.000000 0.000000 -0.000000 -20.000000 0.000000 -0.000000 -0.000000 0.000000 -0.000000 -20.000000 0.000000 -0.000000 -24.000000 0.000000 -0.000000 -20.000000 0.000000 -0.000000 -0.000000 0.000000 -0.000000 -19.974758 -1.025646 2.819379 -24.000000 0.000000 -0.000000 -20.000000 0.000000 -0.000000 -0.000000 0.000000 -0.000000 -19.781452 -3.009481 8.305146 -24.000000 0.000000 -0.000000 -20.000000 0.000000 -0.000000 
-217.485092 84.611908 -250.460297 -1.413050 -3.201057 -51.143818 3.224645 -11.527990 16.887642 0.000001 28.592453 -0.000004 -1.349964 -13.494077 -0.406280 -3.847883 -7.582438 -0.934344 0.000002 24.546875 -0.000005 2.687187 -13.711583 15.683135 -2.003340 5.097624 4.797222 -0.460199 1.285346 1.157504 -0.777940 2.125023 1.907526 -0.367195 0.284467 -0.194228 -0.367595 0.284065 -0.196958 -6.493938 5.164656 -3.604203 2.262520 -2.228843 -0.580322 53.256748 -41.035721 -20.698027 -1.701212 -4.343232 76.803703 45.461914 -33.703083 51.875820 28.184042 10.729352 19.159164 -0.000000 0.000000 -10.000000 -0.000000 0.000000 -10.000000 -0.000000 0.000000 -0.000000 19.981762 0.871897 2.396401 24.000000 0.000000 -0.000000 20.000000 0.000000 -0.000000 -0.000000 0.000000 -0.000000 20.000000 0.000000 -0.000000 24.000000 0.000000 -0.000000 20.000000 0.000000 -0.000000 -0.000000 0.000000 -0.000000 19.974758 -1.025646 -2.819379 24.000000 0.000000 -0.000000 20.000000 0.000000 -0.000000 -0.000000 0.000000 -0.000000 19.781452 -3.009481 -8.305146 24.000000 0.000000 -0.000000 20.000000 0.000000 -0.000000 -1.863123 0.978612 -13.039016 -81.260704 -1.019639 -5.394298 -2.758017 12.176978 -6.988431 -0.835644 3.453799 -1.228040 -28.184042 10.729352 -19.159164 -0.000000 0.000000 10.000000 -0.000000 0.000000 10.000000 -0.000000 0.000000 -0.000000 -19.981762 0.871897 -2.396401 -24.000000 0.000000 -0.000000 -20.000000 0.000000 -0.000000 -0.000000 0.000000 -0.000000 -20.000000 0.000000 -0.000000 -24.000000 0.000000 -0.000000 -20.000000 0.000000 -0.000000 -0.000000 0.000000 -0.000000 -19.974758 -1.025646 2.819379 -24.000000 0.000000 -0.000000 -20.000000 0.000000 -0.000000 -0.000000 0.000000 -0.000000 -19.781452 -3.009481 8.305146 -24.000000 0.000000 -0.000000 -20.000000 0.000000 -0.000000 
-217.521027 84.609108 -250.463684 -1.359488 -3.129678 -51.261154 3.307982 -11.609730 17.045790 -0.000000 28.598667 -0.000000 -1.375425 -13.495540 -0.348868 -3.883178 -7.641706 -1.142324 0.000001 24.579231 -0.000002 2.698353 -13.756964 16.113560 -1.984784 4.991926 4.798961 -0.456420 1.259032 1.159192 -0.771460 2.081858 1.910795 -0.359484 0.286262 -0.205760 -0.359871 0.285834 -0.208480 -6.344598 5.200284 -3.813002 2.206817 -2.078059 -0.857203 55.159332 -41.380997 -20.179117 -2.307717 -4.992471 77.259056 43.537380 -33.329407 50.282917 28.184042 10.729352 19.159164 -0.000000 0.000000 -10.000000 -0.000000 0.000000 -10.000000 -0.000000 0.000000 -0.000000 19.981762 0.871897 2.396401 24.000000 0.000000 -0.000000 20.000000 0.000000 -0.000000 -0.000000 0.000000 -0.000000 20.000000 0.000000 -0.000000 24.000000 0.000000 -0.000000 20.000000 0.000000 -0.000000 -0.000000 0.000000 -0.000000 19.974758 -1.025646 -2.819379 24.000000 0.000000 -0.000000 20.000000 0.000000 -0.000000 -0.000000 0.000000 -0.000000 19.781452 -3.009481 -8.305146 24.000000 0.000000 -0.000000 20.000000 0.000000 -0.000000 -1.857968 1.188356 -13.231822 -81.356407 -1.291539 -5.463144 -2.739515 12.252091 -7.077263 -1.050970 3.446138 -1.262661 -28.184042 10.729352 -19.159164 -0.000000 0.000000 10.000000 -0.000000 0.000000 10.000000 -0.000000 0.000000 -0.000000 -19.981762 0.871897 -2.396401 -24.000000 0.000000 -0.000000 -20.000000 0.000000 -0.000000 -0.000000 0.000000 -0.000000 -20.000000 0.000000 -0.000000 -24.000000 0.000000 -0.000000 -20.000000 0.000000 -0.000000 -0.000000 0.000000 -0.000000 -19.974758 -1.025646 2.819379 -24.000000 0.000000 -0.000000 -20.000000 0.000000 -0.000000 -0.000000 0.000000 -0.000000 -19.781452 -3.009481 8.305146 -24.000000 0.000000 -0.000000 -20.000000 0.000000 -0.000000 
-217.546814 84.605202 -250.453232 -1.325243 -3.074043 -51.307785 3.375068 -11.651471 17.178854 0.000001 28.589102 -0.000001 -1.393273 -13.487889 -0.269427 -3.913337 -7.674736 -1.277849 -0.000001 24.604813 0.000005 2.742276 -13.800787 16.477625 -1.939696 4.929965 4.787431 -0.445763 1.242895 1.157775 -0.753607 2.055162 1.909055 -0.351102 0.289700 -0.217393 -0.351478 0.289261 -0.220105 -6.182058 5.266437 -4.024145 2.200719 -1.966070 -0.949420 56.932232 -41.409000 -19.091782 -2.826533 -5.557971 77.535683 41.753510 -33.105515 48.735394 28.184042 10.729352 19.159164 -0.000000 0.000000 -10.000000 -0.000000 0.000000 -10.000000 -0.000000 0.000000 -0.000000 19.981762 0.871897 2.396401 24.000000 0.000000 -0.000000 20.000000 0.000000 -0.000000 -0.000000 0.000000 -0.000000 20.000000 0.000000 -0.000000 24.000000 0.000000 -0.000000 20.000000 0.000000 -0.000000 -0.000000 0.000000 -0.000000 19.974758 -1.025646 -2.819379 24.000000 0.000000 -0.000000 20.000000 0.000000 -0.000000 -0.000000 0.000000 -0.000000 19.781452 -3.009481 -8.305146 24.000000 0.000000 -0.000000 20.000000 0.000000 -0.000000 -1.871656 1.327179 -13.242050 -81.462288 -1.403767 -5.540660 -2.718864 12.181979 -6.995175 -1.127350 3.447338 -1.214049 -28.184042 10.729352 -19.159164 -0.000000 0.000000 10.000000 -0.000000 0.000000 10.000000 -0.000000 0.000000 -0.000000 -19.981762 0.871897 -2.396401 -24.000000 0.000000 -0.000000 -20.000000 0.000000 -0.000000 -0.000000 0.000000 -0.000000 -20.000000 0.000000 -0.000000 -24.000000 0.000000 -0.000000 -20.000000 0.000000 -0.000000 -0.000000 0.000000 -0.000000 -19.974758 -1.025646 2.819379 -24.000000 0.000000 -0.000000 -20.000000 0.000000 -0.000000 -0.000000 0.000000 -0.000000 -19.781452 -3.009481 8.305146 -24.000000 0.000000 -0.000000 -20.000000 0.000000 -0.000000 
